# xmcd
#
# Track frame offsets:
#	150
#	8730
#	19797
#	29290
#	39600
#	48740
#	56192
#	66412
#	75982
#	92970
#	101967
#	111500
#	122787
#	131732
#	147555
#	158760
#	169137
#	179722
#
# Disc length: 2572 seconds
#
# Revision: 2
# Processed by: cddbd v1.4PL0 Copyright (c) Steve Scherf et al.
# Submitted via: CDmax 1.9
#
DISCID=0d0a0a12
DTITLE=Hank Williams - Alone With His Guitar
DYEAR=2000
DGENRE=Country
TTITLE0=Tennessee Border
TTITLE1=First Year Blues
TTITLE2=Blue Love
TTITLE3=Please Don't Let Me Love You
TTITLE4=Alone and Forsaken
TTITLE5=You Caused It All by Telling Lies
TTITLE6=With Tears in My Eyes
TTITLE7=Rockin' Chair Money
TTITLE8=Cool Water
TTITLE9=We Live in Two Different Worlds
TTITLE10=My Bucket's Got a Hole in It
TTITLE11=A Tear Drop on a Rose
TTITLE12=Honky Tonk Blues
TTITLE13=Thy Burdens Are Greater Than Mine
TTITLE14=Weary Blues from Waitin'
TTITLE15=I Can't Escape From You
TTITLE16=I Could Never Be Ashamed of You
TTITLE17=Kaw-liga
EXTD=
EXTT0=
EXTT1=
EXTT2=
EXTT3=
EXTT4=
EXTT5=
EXTT6=
EXTT7=
EXTT8=
EXTT9=
EXTT10=
EXTT11=
EXTT12=
EXTT13=
EXTT14=
EXTT15=
EXTT16=
EXTT17=
PLAYORDER=
